<?xml version="1.0" standalone="no"?><svg xmlns="http://www.w3.org/2000/svg" viewBox="0 0 1440 200"><path fill="#f7f7f7" fill-opacity="1" d="M0,256L18.5,261.3C36.9,267,74,277,111,250.7C147.7,224,185,160,222,133.3C258.5,107,295,117,332,138.7C369.2,160,406,192,443,181.3C480,171,517,117,554,101.3C590.8,85,628,107,665,106.7C701.5,107,738,85,775,96C812.3,107,849,149,886,181.3C923.1,213,960,235,997,229.3C1033.8,224,1071,192,1108,176C1144.6,160,1182,160,1218,154.7C1255.4,149,1292,139,1329,122.7C1366.2,107,1403,85,1422,74.7L1440,64L1440,320L1421.5,320C1403.1,320,1366,320,1329,320C1292.3,320,1255,320,1218,320C1181.5,320,1145,320,1108,320C1070.8,320,1034,320,997,320C960,320,923,320,886,320C849.2,320,812,320,775,320C738.5,320,702,320,665,320C627.7,320,591,320,554,320C516.9,320,480,320,443,320C406.2,320,369,320,332,320C295.4,320,258,320,222,320C184.6,320,148,320,111,320C73.8,320,37,320,18,320L0,320Z"></path></svg>