<?xml version="1.0" standalone="no"?><svg xmlns="http://www.w3.org/2000/svg" viewBox="0 30 1440 290"><path fill="#c7f7f7" fill-opacity="1" d="M0,192L24,197.3C48,203,96,213,144,202.7C192,192,240,160,288,160C336,160,384,192,432,202.7C480,213,528,203,576,192C624,181,672,171,720,144C768,117,816,75,864,69.3C912,64,960,96,1008,122.7C1056,149,1104,171,1152,170.7C1200,171,1248,149,1296,122.7C1344,96,1392,64,1416,48L1440,32L1440,320L1416,320C1392,320,1344,320,1296,320C1248,320,1200,320,1152,320C1104,320,1056,320,1008,320C960,320,912,320,864,320C816,320,768,320,720,320C672,320,624,320,576,320C528,320,480,320,432,320C384,320,336,320,288,320C240,320,192,320,144,320C96,320,48,320,24,320L0,320Z"></path></svg>
