<?xml version="1.0" standalone="no"?><svg xmlns="http://www.w3.org/2000/svg" viewBox="0 0 1440 220"><path fill="#c7f7f7" fill-opacity="1" d="M0,192L24,197.3C48,203,96,213,144,202.7C192,192,240,160,288,160C336,160,384,192,432,202.7C480,213,528,203,576,192C624,181,672,171,720,144C768,117,816,75,864,69.3C912,64,960,96,1008,122.7C1056,149,1104,171,1152,170.7C1200,171,1248,149,1296,122.7C1344,96,1392,64,1416,48L1440,32L1440,0L1416,0C1392,0,1344,0,1296,0C1248,0,1200,0,1152,0C1104,0,1056,0,1008,0C960,0,912,0,864,0C816,0,768,0,720,0C672,0,624,0,576,0C528,0,480,0,432,0C384,0,336,0,288,0C240,0,192,0,144,0C96,0,48,0,24,0L0,0Z"></path></svg>